<svg width="108" height="24" viewBox="0 0 108 24" fill="none" xmlns="http://www.w3.org/2000/svg">
<path d="M15.672 2.2H0.672031V4.408C1.58403 3.88 2.68803 3.304 4.70403 3.304H6.09603V15.208C6.09603 16.456 5.90403 17.464 5.42403 19H10.92C10.416 17.416 10.224 16.408 10.224 15.208V3.304H11.64C13.656 3.304 14.76 3.88 15.672 4.408V2.2ZM30.1838 6.64C30.7118 7.816 30.3038 9.136 29.9198 10.312L28.5038 14.44L26.7278 9.712C26.3438 8.704 26.1758 7.552 26.6558 6.64H21.4478L23.0078 10.336L21.6158 14.44L19.8398 9.712C19.4558 8.656 19.2638 7.552 19.7438 6.64H14.5598L19.7198 19H20.7518L23.6078 11.776L26.6318 19H27.6398L32.5118 6.64H30.1838ZM45.1911 12.256C45.1911 9.088 43.2951 6.304 39.3591 6.304C35.3991 6.304 32.9511 9.112 32.9511 12.808C32.9511 16.48 35.4231 19.312 39.7191 19.312C42.4071 19.312 44.3031 18.256 45.1431 16.864L42.9591 15.088C42.1671 16.984 41.3511 18.184 39.8871 18.184C37.9671 18.184 37.0551 16.12 37.0551 12.808H45.1911V12.256ZM37.0791 11.704C37.2231 8.8 37.9671 7.408 39.3591 7.408C40.8951 7.408 41.6151 9.16 41.6151 11.704H37.0791ZM53.0828 6.304C50.7068 6.304 48.3308 7.216 47.3468 9.616L50.2028 10.504C50.6348 8.44 51.2588 7.408 52.6748 7.408C54.0428 7.408 54.8588 8.272 54.8588 10.096V11.56L52.6028 11.968C49.5788 12.52 47.0588 13.6 47.0588 16.072C47.0588 18.112 48.8348 19.312 50.9468 19.312C53.0348 19.312 54.5468 18.136 55.2908 16.168L56.9228 19H58.8428V11.176C58.8428 7.648 55.9628 6.304 53.0828 6.304ZM52.4108 17.872C51.5468 17.872 50.8508 17.152 50.8508 15.952C50.8508 14.44 51.9788 13.144 53.6348 12.664L54.8588 12.304V12.952C54.8588 16.24 53.7548 17.872 52.4108 17.872ZM65.7115 15.424V1.24H61.0315C61.4395 2.44 61.7275 3.472 61.7275 4.816V15.424C61.7275 16.528 61.5595 17.488 61.0315 19H66.4075C65.9995 17.8 65.7115 16.768 65.7115 15.424ZM69.1435 11.128L73.4395 6.616H70.8955C70.9915 7.144 70.9435 7.84 70.0555 8.752L66.0235 12.856L69.0235 16.624C69.8155 17.656 69.7675 18.352 69.5515 19H75.1195L69.1435 11.128ZM81.9795 3.688C83.1075 3.688 83.9715 3.928 84.7875 4.24L85.6035 1.6C84.8835 1.24 83.7555 0.927999 82.4595 0.927999C79.0995 0.927999 77.3955 3.184 77.3955 5.968V6.616H75.5235V7.72H77.3955V15.424C77.3955 16.528 77.2035 17.488 76.6995 19H82.0755C81.6675 17.8 81.3795 16.768 81.3795 15.424V7.72H84.2595V6.616H80.6355C79.1235 6.616 78.7875 5.92 78.7875 5.392C78.7875 4.312 80.3235 3.688 81.9795 3.688ZM93.8689 6.616C94.2529 7.816 94.5649 8.848 94.5649 10.192V14.152C94.5649 15.76 93.8689 17.872 92.2129 17.872C91.1329 17.872 90.2929 16.936 90.2929 15.016V6.616H85.6129C85.9969 7.816 86.3089 8.848 86.3089 10.192V14.752C86.3089 17.776 88.1329 19.312 90.6049 19.312C93.0049 19.312 94.3969 17.896 94.9249 16.048L96.6529 19H98.5489V6.616H93.8689ZM101.852 4.816V15.424C101.852 16.528 101.684 17.488 101.156 19H106.532C106.124 17.8 105.836 16.768 105.836 15.424V1.24H101.156C101.564 2.44 101.852 3.472 101.852 4.816Z" fill="white"/>
</svg>
