<svg width="54" height="54" viewBox="0 0 54 54" fill="none" xmlns="http://www.w3.org/2000/svg">
<circle cx="27" cy="27" r="27" fill="#E7EBFC"/>
<rect opacity="0.01" x="15" y="15" width="24" height="24" fill="#2E4FD7"/>
<path d="M24 18H20C18.8954 18 18 18.8954 18 20V24C18 25.1046 18.8954 26 20 26H24C25.1046 26 26 25.1046 26 24V20C26 18.8954 25.1046 18 24 18Z" fill="#2E4FD7"/>
<path d="M34 18H30C28.8954 18 28 18.8954 28 20V24C28 25.1046 28.8954 26 30 26H34C35.1046 26 36 25.1046 36 24V20C36 18.8954 35.1046 18 34 18Z" fill="#2E4FD7"/>
<path d="M24 28H20C18.8954 28 18 28.8954 18 30V34C18 35.1046 18.8954 36 20 36H24C25.1046 36 26 35.1046 26 34V30C26 28.8954 25.1046 28 24 28Z" fill="#2E4FD7"/>
<path d="M34 28H30C28.8954 28 28 28.8954 28 30V34C28 35.1046 28.8954 36 30 36H34C35.1046 36 36 35.1046 36 34V30C36 28.8954 35.1046 28 34 28Z" fill="#2E4FD7"/>
</svg>
