<svg width="54" height="54" viewBox="0 0 54 54" fill="none" xmlns="http://www.w3.org/2000/svg">
<circle cx="27" cy="27" r="27" fill="#E7EBFC"/>
<rect opacity="0.01" x="39" y="15" width="24" height="24" transform="rotate(90 39 15)" fill="#1E1E1E"/>
<path d="M32.56 36C32.4001 36.0006 32.2423 35.9629 32.1 35.89L27 33.22L21.9 35.89C21.5621 36.0676 21.1526 36.0374 20.8444 35.8122C20.5363 35.5869 20.3832 35.2058 20.45 34.83L21.45 29.2L17.33 25.2C17.0681 24.9386 16.9719 24.5539 17.08 24.2C17.1982 23.8374 17.5124 23.5736 17.89 23.52L23.59 22.69L26.1 17.56C26.2671 17.215 26.6167 16.9958 27 16.9958C27.3833 16.9958 27.7329 17.215 27.9 17.56L30.44 22.68L36.14 23.51C36.5176 23.5636 36.8318 23.8274 36.95 24.19C37.0581 24.5439 36.9619 24.9286 36.7 25.19L32.58 29.19L33.58 34.82C33.6529 35.2028 33.4968 35.593 33.18 35.82C32.9989 35.9469 32.7809 36.0102 32.56 36V36Z" fill="#2E4FD7"/>
</svg>
