<svg width="54" height="54" viewBox="0 0 54 54" fill="none" xmlns="http://www.w3.org/2000/svg">
<circle cx="27" cy="27" r="27" fill="#E7EBFC"/>
<rect opacity="0.01" x="39" y="39" width="24" height="24" transform="rotate(180 39 39)" fill="#2E4FD7"/>
<path d="M18.24 22.29L26.76 26.92C26.91 27 27.09 27 27.24 26.92L35.76 22.29C35.9189 22.2115 36.0153 22.0453 36.0043 21.8684C35.9934 21.6915 35.8774 21.5384 35.71 21.48L27.19 18C27.0683 17.95 26.9317 17.95 26.81 18L18.29 21.48C18.1226 21.5384 18.0066 21.6915 17.9957 21.8684C17.9847 22.0453 18.081 22.2115 18.24 22.29Z" fill="#2E4FD7"/>
<path d="M35.71 25.66L33.88 24.88L27.24 28.49C27.09 28.57 26.91 28.57 26.76 28.49L20.12 24.88L18.29 25.66C18.132 25.7429 18.0331 25.9066 18.0331 26.085C18.0331 26.2634 18.132 26.4271 18.29 26.51L26.81 31.41C26.9573 31.5001 27.1427 31.5001 27.29 31.41L35.81 26.51C35.9604 26.4099 36.0419 26.2338 36.0208 26.0543C35.9997 25.8749 35.8795 25.7225 35.71 25.66V25.66Z" fill="#2E4FD7"/>
<path d="M35.71 30.1L34.15 29.42L27.24 33.18C27.09 33.26 26.91 33.26 26.76 33.18L19.85 29.42L18.29 30.1C18.1275 30.1843 18.0256 30.352 18.0256 30.535C18.0256 30.718 18.1275 30.8858 18.29 30.97L26.81 35.97C26.96 36.05 27.14 36.05 27.29 35.97L35.81 30.97C35.965 30.8685 36.0495 30.6883 36.0283 30.5042C36.0071 30.3201 35.884 30.1638 35.71 30.1Z" fill="#2E4FD7"/>
</svg>
